# xmcd CD database file generated by Grip 2.95
# 
# Track frame offsets:
#       150
#       14602
#       29310
#       42837
#       57664
#       70858
#       84572
#       98758
#       112963
#       126342
#       140069
#       154179
#       167203
#       181217
#       194769
#       208297
#       222961
#       235358
#       249619
#       262562
#       276861
#       290345
# 
# Disc length: 4026 seconds
# 
# Revision: 3
# Processed by: cddbd v1.4b41PL2 Copyright (c) Steve Scherf et al.
# Submitted via: Grip 2.95
# 
DISCID=510fb816
DTITLE=Lizzie Miles - Complete Recorded Works vol 1
DYEAR=1900
DGENRE=
TTITLE0=Muscle Shoals Blues
TTITLE1=She Walked Right Up and Took My Man Away
TTITLE2=Virginia Blues
TTITLE3=State Street Blues
TTITLE4=Wicked Blues
TTITLE5=He May Be Your Man, But He Comes To See Me Sometimes
TTITLE6=Lonesome Monday Morning Blues
TTITLE7=Please Don't Tickle Me Babe
TTITLE8=Hot Lips
TTITLE9=Take It, 'Cause It's All Yours
TTITLE10=The Yellow Dog Blues
TTITLE11=The Black Bottom Blues
TTITLE12=He Used To Be Your Man, But He's My Man Now
TTITLE13=Sweet Smellin' Mama (Poro Blues)
TTITLE14=The Trixie Blues
TTITLE15=Four O'Clock Blues
TTITLE16=Aggravatin' Papa
TTITLE17=Tell Me Gypsy
TTITLE18=You've Gotta Come And See Mama Every Night
TTITLE19=Your Time Now
TTITLE20=Haitian Blues
TTITLE21=Sweet Smellin' Mama (Poro Blues) (2)
EXTD=
EXTT0=
EXTT1=
EXTT2=
EXTT3=
EXTT4=
EXTT5=
EXTT6=
EXTT7=
EXTT8=
EXTT9=
EXTT10=
EXTT11=
EXTT12=
EXTT13=
EXTT14=
EXTT15=
EXTT16=
EXTT17=
EXTT18=
EXTT19=
EXTT20=
EXTT21=
PLAYORDER=
